<svg xmlns="http://www.w3.org/2000/svg" viewBox="0 0 223.51 223.51"><defs><style>.cls-1{fill:#9ac1d9;}.cls-2{fill:#d5e7f2;}.cls-3{fill:#254159;}.cls-4{fill:#5981a6;}.cls-5{fill:#f7bf40;}</style></defs><title>Asset 6</title><g id="Layer_2" data-name="Layer 2"><g id="Layer_1-2" data-name="Layer 1"><path class="cls-1" d="M111.76,206.54A94.79,94.79,0,0,1,28.57,157.2,93.68,93.68,0,0,1,17,115.43v-.06c-.05-1.32-.07-2.5-.07-3.61A94.76,94.76,0,0,1,58.64,33.24q.84-.57,1.68-1.11a96.51,96.51,0,0,1,12.41-6.77,93.9,93.9,0,0,1,39-8.39c1.33,0,2.67,0,4,.09a94.78,94.78,0,0,1-4,189.48Z"/><path class="cls-2" d="M111.76,33.94c1.09,0,2.18,0,3.26.07a77.84,77.84,0,1,1-81,80.77c0-1-.06-2-.06-3A77.75,77.75,0,0,1,68.19,47.27l1.38-.91a77.52,77.52,0,0,1,42.19-12.42m0-33.94a111.34,111.34,0,0,0-60.6,17.85l0,0,0,0c-.54.35-1.21.79-2,1.31A111.68,111.68,0,0,0,0,111.76c0,1.3,0,2.68.08,4.19v.12A111.77,111.77,0,1,0,116.42.1c-1.54-.07-3.11-.1-4.66-.1Z"/><path class="cls-3" d="M36.77,159.27a4.63,4.63,0,0,1,.74,2,4.92,4.92,0,0,1-.16,1.92l-.69-.13a4.44,4.44,0,0,0,.14-1.74,4,4,0,0,0-.6-1.67,3,3,0,0,0-1.54-1.32,1.92,1.92,0,0,0-1.69.22,2.12,2.12,0,0,0-.63.59,1.9,1.9,0,0,0-.29.67,2.27,2.27,0,0,0,0,.74q0,.39.09.81l.25,1.76q.06.36.09.81a3.19,3.19,0,0,1-.06.87,2.94,2.94,0,0,1-.35.85,2.3,2.3,0,0,1-.76.72,2.18,2.18,0,0,1-1,.37,2.45,2.45,0,0,1-1-.1,3.11,3.11,0,0,1-1-.54,4.21,4.21,0,0,1-.83-.94,3.94,3.94,0,0,1-.6-1.66,4.47,4.47,0,0,1,.1-1.53l.63.09a3.82,3.82,0,0,0-.07,1.35,3.3,3.3,0,0,0,.52,1.38,2.66,2.66,0,0,0,1.35,1.17,1.68,1.68,0,0,0,1.53-.2,1.63,1.63,0,0,0,.57-.57,2,2,0,0,0,.23-.68,3.55,3.55,0,0,0,0-.73c0-.24-.05-.47-.08-.68l-.26-1.75a7.81,7.81,0,0,1-.09-1,3.39,3.39,0,0,1,.09-.91,2.61,2.61,0,0,1,.39-.83,2.79,2.79,0,0,1,.79-.72,2.68,2.68,0,0,1,1.1-.41,2.55,2.55,0,0,1,1.13.1,3.25,3.25,0,0,1,1.08.58A4.16,4.16,0,0,1,36.77,159.27Z"/><path class="cls-3" d="M32.06,150.82a3.35,3.35,0,0,1,.11,2.66,3.89,3.89,0,0,1-.81,1.24,4.87,4.87,0,0,1-1.43,1,5.19,5.19,0,0,1-1.68.51,4.06,4.06,0,0,1-1.5-.12,3.15,3.15,0,0,1-1.19-.65,3.36,3.36,0,0,1-1.17-2.39,3.15,3.15,0,0,1,.22-1.35,3.7,3.7,0,0,1,.82-1.25,5.08,5.08,0,0,1,1.44-1,4.94,4.94,0,0,1,1.67-.5,4,4,0,0,1,1.48.12,3.35,3.35,0,0,1,1.2.66A3.42,3.42,0,0,1,32.06,150.82Zm-.57.28a2.54,2.54,0,0,0-.71-.88,2.47,2.47,0,0,0-1-.47,3.35,3.35,0,0,0-1.23,0,4.42,4.42,0,0,0-1.34.42,4.55,4.55,0,0,0-1.18.81,3.72,3.72,0,0,0-.73,1A2.52,2.52,0,0,0,25,153a2.45,2.45,0,0,0,.25,1.09A2.4,2.4,0,0,0,27,155.45a3.41,3.41,0,0,0,1.24,0,4.45,4.45,0,0,0,1.36-.43,4.28,4.28,0,0,0,1.15-.8,3.51,3.51,0,0,0,.73-1,2.59,2.59,0,0,0,.25-1.09A2.44,2.44,0,0,0,31.49,151.1Z"/><path class="cls-3" d="M28.41,142.23a2.14,2.14,0,0,1-.09,1.93,3.67,3.67,0,0,1-1.93,1.28l-4.7,1.68-.23-.67,4.6-1.64a3.28,3.28,0,0,0,1.59-1,1.53,1.53,0,0,0,.1-1.47,2.13,2.13,0,0,0-.78-1.06,6,6,0,0,0-1.55-.77L20,142.42l-.24-.67,7.32-2.61.2.57-1.19.51v0a5.3,5.3,0,0,1,1.42.76A2.59,2.59,0,0,1,28.41,142.23Z"/><path class="cls-3" d="M25.57,132.86a2.3,2.3,0,0,1,.07.95,1.51,1.51,0,0,1-.32.7,1.79,1.79,0,0,1-.64.49,5.27,5.27,0,0,1-.9.33l-4.85,1.24.3,1.17-.53.14-.37-1.17-2.2.46-.16-.6,2.18-.55-.55-2.19.59-.15.56,2.18,4.91-1.25a4.31,4.31,0,0,0,.64-.23,1.36,1.36,0,0,0,.45-.32,1.09,1.09,0,0,0,.23-.47,1.41,1.41,0,0,0-.05-.66,1.6,1.6,0,0,0-.19-.46,4,4,0,0,0-.28-.43l.51-.33a5.6,5.6,0,0,1,.38.61A3.07,3.07,0,0,1,25.57,132.86Z"/><path class="cls-3" d="M24.43,128.74l-11.49,1.85-.11-.7,5-.81a7.47,7.47,0,0,1-1.2-1.07,2.67,2.67,0,0,1-.62-1.36,2.1,2.1,0,0,1,.44-1.87,3.65,3.65,0,0,1,2.13-.92l4.92-.79.12.7-4.83.78a3.21,3.21,0,0,0-1.75.7,1.53,1.53,0,0,0-.37,1.44,2.31,2.31,0,0,0,.56,1.19A7.73,7.73,0,0,0,18.54,129l5.78-.93Z"/><path class="cls-3" d="M23.15,116a3.55,3.55,0,0,1-.2,1.42,3.32,3.32,0,0,1-.74,1.18,3.94,3.94,0,0,1-1.23.84,5.17,5.17,0,0,1-1.69.37,5,5,0,0,1-1.73-.19,3.9,3.9,0,0,1-1.33-.69,3.39,3.39,0,0,1-.86-1,2.93,2.93,0,0,1-.35-1.24,2.69,2.69,0,0,1,.82-2.23,3.92,3.92,0,0,1,2.61-.94h.29a1.43,1.43,0,0,1,.29,0l.3,5.6a4.77,4.77,0,0,0,1.34-.3,3.18,3.18,0,0,0,1-.65,2.73,2.73,0,0,0,.65-1,2.66,2.66,0,0,0,.18-1.21,3.29,3.29,0,0,0-.24-1.13,3.78,3.78,0,0,0-.56-.92l.53-.32a10.48,10.48,0,0,1,.57,1A3.44,3.44,0,0,1,23.15,116Zm-4.4,3.11-.27-5a3.42,3.42,0,0,0-2.2.73,2.07,2.07,0,0,0-.65,1.71,2.35,2.35,0,0,0,.25.94,2.4,2.4,0,0,0,.64.79,3.21,3.21,0,0,0,1,.55A4.48,4.48,0,0,0,18.75,119.12Z"/><path class="cls-3" d="M22.87,109.78l-7.76-.26,0-.62h1.44v0a4,4,0,0,1-1.15-1,2,2,0,0,1-.41-1.27,4,4,0,0,1,.05-.4,1.54,1.54,0,0,1,.14-.37l.64.19a1.82,1.82,0,0,0-.11.33,3,3,0,0,0,0,.37,1.84,1.84,0,0,0,.41,1.11,3.76,3.76,0,0,0,1.51,1.08l5.29.18Z"/><path class="cls-3" d="M23.22,103.3l-7.71-1,.07-.61,1.2.08v0a6.74,6.74,0,0,1-.84-1.34,2.64,2.64,0,0,1-.21-1.48,2.14,2.14,0,0,1,1-1.68A3.72,3.72,0,0,1,19,97l5,.63-.09.71L19,97.69a3.33,3.33,0,0,0-1.88.18,1.57,1.57,0,0,0-.75,1.29,2.18,2.18,0,0,0,.2,1.29,7.39,7.39,0,0,0,.92,1.41l5.82.74Z"/><path class="cls-3" d="M25.39,90.23,16.23,83.6l.21-.72,11.3-.56-.23.75-3.86.15-1.2,4,3.15,2.25Zm-5.2-4.58,1.72,1.22L23,83.24l-2.1.09L19,83.39c-.62,0-1.27,0-1.95,0l0,.06c.58.36,1.12.72,1.63,1.07Z"/><path class="cls-3" d="M28.9,79.44l-6.66-2.63-.39,1-.51-.2.33-1L20.06,76a2.6,2.6,0,0,1-1.44-1.11,1.76,1.76,0,0,1,0-1.54,2.6,2.6,0,0,1,.65-1l.47.4a1.72,1.72,0,0,0-.34.38,1.77,1.77,0,0,0-.21.41,1,1,0,0,0,.08,1,2.38,2.38,0,0,0,1.11.76l1.57.62.66-1.67.57.23-.66,1.67,6.66,2.62Z"/><path class="cls-3" d="M31.06,74.32,24,71l.27-.55,1.33.56,0,0A3.65,3.65,0,0,1,25,69.58a2,2,0,0,1,.13-1.33,2.3,2.3,0,0,1,.2-.35,1.48,1.48,0,0,1,.28-.28l.51.42a2.6,2.6,0,0,0-.24.27l-.18.32a1.83,1.83,0,0,0-.07,1.18,3.75,3.75,0,0,0,1,1.59l4.78,2.28Z"/><path class="cls-3" d="M25.8,63.43a.66.66,0,0,1-.38.32.61.61,0,0,1-.49-.06.61.61,0,0,1-.33-.4.69.69,0,0,1,.08-.48.67.67,0,0,1,.37-.32.63.63,0,0,1,.51.07.64.64,0,0,1,.31.38A.65.65,0,0,1,25.8,63.43Zm8.23,5-6.78-3.79.35-.62,6.78,3.79Z"/><path class="cls-3" d="M38.37,61.79a3.44,3.44,0,0,1-1,1,3.28,3.28,0,0,1-1.28.49,3.7,3.7,0,0,1-1.47-.09A5.11,5.11,0,0,1,33,62.47a4.81,4.81,0,0,1-1.28-1.21,3.91,3.91,0,0,1-.64-1.36,3.38,3.38,0,0,1,0-1.38,3.52,3.52,0,0,1,.52-1.27,2.8,2.8,0,0,1,1-1,4.43,4.43,0,0,1,1.07-.41l.19.63a3.49,3.49,0,0,0-1,.35,2.26,2.26,0,0,0-.76.72,2.57,2.57,0,0,0-.41,1.06,2.61,2.61,0,0,0,.1,1.14,3.7,3.7,0,0,0,.58,1.11,4.74,4.74,0,0,0,2.32,1.56,3.21,3.21,0,0,0,1.21.13A2.42,2.42,0,0,0,37,62.23a2.56,2.56,0,0,0,.85-.82,2.53,2.53,0,0,0,.42-1.09,3.88,3.88,0,0,0,0-1.13l.63,0a4.56,4.56,0,0,1,0,1.33A3.05,3.05,0,0,1,38.37,61.79Z"/><path class="cls-3" d="M42.77,55.86a3,3,0,0,1-.65.59,2.16,2.16,0,0,1-.76.3,1.78,1.78,0,0,1-.82,0,2.34,2.34,0,0,1-.85-.47,2.14,2.14,0,0,1-.75-2.18,10.85,10.85,0,0,1,1.68-3.55A5.2,5.2,0,0,0,39.9,50a2.08,2.08,0,0,0-.79-.3,1.83,1.83,0,0,0-.8.08,1.75,1.75,0,0,0-.76.59,3.33,3.33,0,0,0-.67,1.29,7.42,7.42,0,0,0-.21,1.2l-.61-.09a5.3,5.3,0,0,1,.07-.6,4.56,4.56,0,0,1,.18-.73,6.13,6.13,0,0,1,.32-.78,3.71,3.71,0,0,1,.49-.77,2.66,2.66,0,0,1,.91-.74A2.11,2.11,0,0,1,39,49a2.69,2.69,0,0,1,1,.28,5.09,5.09,0,0,1,1,.65L44.84,53l-.4.48-.81-.59,0,0a7.88,7.88,0,0,1-.18,1.52A3.05,3.05,0,0,1,42.77,55.86Zm-.39-.5a2.67,2.67,0,0,0,.57-1.2,7.21,7.21,0,0,0,.13-1.64l-2-1.67a16.38,16.38,0,0,0-1,1.79A5.13,5.13,0,0,0,39.58,54a2,2,0,0,0,.05,1,1.62,1.62,0,0,0,.5.69,1.67,1.67,0,0,0,.63.35,1.23,1.23,0,0,0,.6,0,1.38,1.38,0,0,0,.55-.23A2.16,2.16,0,0,0,42.38,55.36Z"/><path class="cls-3" d="M47.6,50l-5.44-5.55.44-.43.88.81,0,0a6.5,6.5,0,0,1,.18-1.57A2.75,2.75,0,0,1,44.45,42a2.12,2.12,0,0,1,1.78-.73,3.73,3.73,0,0,1,2,1.21L51.7,46l-.51.49L47.77,43a3.27,3.27,0,0,0-1.58-1,1.56,1.56,0,0,0-1.39.53,2.33,2.33,0,0,0-.65,1.15A7.68,7.68,0,0,0,44,45.34l4.1,4.19Z"/><path class="cls-3" d="M61.88,38.22a4.51,4.51,0,0,1-1.76.75,4,4,0,0,1-1.82-.09A5.2,5.2,0,0,1,56.54,38,7.47,7.47,0,0,1,55,36.27a7.1,7.1,0,0,1-1-2.07,5.28,5.28,0,0,1-.21-2,4.11,4.11,0,0,1,.6-1.75,4.79,4.79,0,0,1,1.36-1.41,4.68,4.68,0,0,1,.87-.47,4.81,4.81,0,0,1,.83-.21,3.92,3.92,0,0,1,.76,0,6.05,6.05,0,0,1,.67.09l-.08.66a3.77,3.77,0,0,0-1.26-.06,2.87,2.87,0,0,0-1.38.56,3.86,3.86,0,0,0-1.17,1.22,3.57,3.57,0,0,0-.47,1.5A4.43,4.43,0,0,0,54.67,34,7.8,7.8,0,0,0,57,37.33a4.36,4.36,0,0,0,1.49.83,3.3,3.3,0,0,0,1.56.11,3.51,3.51,0,0,0,1.53-.64,4.38,4.38,0,0,0,1-1A2.63,2.63,0,0,0,63,35.6l-1.89-2.73-2.1,1.46-.36-.52L61.37,32l2.41,3.47a3.76,3.76,0,0,1-.57,1.46A4.7,4.7,0,0,1,61.88,38.22Z"/><path class="cls-3" d="M70.46,33a3.37,3.37,0,0,1-1.36.42,3.24,3.24,0,0,1-1.38-.16,3.85,3.85,0,0,1-1.29-.77,5.28,5.28,0,0,1-1.62-3,3.92,3.92,0,0,1,.07-1.5,3.19,3.19,0,0,1,.57-1.22,2.93,2.93,0,0,1,1-.85,2.71,2.71,0,0,1,2.37-.2,4,4,0,0,1,1.95,2c.05.09.1.17.14.26a1.09,1.09,0,0,1,.11.27l-4.93,2.65A4.31,4.31,0,0,0,66.89,32a3.22,3.22,0,0,0,1,.66,2.59,2.59,0,0,0,1.14.19,2.91,2.91,0,0,0,1.17-.35,3.33,3.33,0,0,0,.92-.7,3.59,3.59,0,0,0,.59-.9l.52.35a10.14,10.14,0,0,1-.66.94A3.49,3.49,0,0,1,70.46,33Zm-4.68-2.66L70.14,28a3.45,3.45,0,0,0-1.6-1.68,2.07,2.07,0,0,0-1.82.14,2.37,2.37,0,0,0-.74.63,2.49,2.49,0,0,0-.44.91,3.34,3.34,0,0,0-.09,1.11A4.41,4.41,0,0,0,65.78,30.37Z"/><path class="cls-3" d="M78.61,29.24a3.37,3.37,0,0,1-1.33.24A3.29,3.29,0,0,1,76,29.16a3.75,3.75,0,0,1-1.18-.89,4.82,4.82,0,0,1-.91-1.49,5.12,5.12,0,0,1-.39-1.72,3.87,3.87,0,0,1,.22-1.48,3.37,3.37,0,0,1,.73-1.15,3.19,3.19,0,0,1,1.13-.75,3.27,3.27,0,0,1,2.67.07,3.82,3.82,0,0,1,1.19.9,5.2,5.2,0,0,1,.92,1.51,4.86,4.86,0,0,1,.38,1.7,3.85,3.85,0,0,1-.23,1.47,3.22,3.22,0,0,1-.73,1.15A3.5,3.5,0,0,1,78.61,29.24Zm-.24-.59a2.39,2.39,0,0,0,.92-.64,2.56,2.56,0,0,0,.55-1A3.45,3.45,0,0,0,80,25.81a4.18,4.18,0,0,0-.32-1.37,4.6,4.6,0,0,0-.73-1.23,3.63,3.63,0,0,0-.94-.79,2.49,2.49,0,0,0-1.08-.34,2.65,2.65,0,0,0-1.11.18,2.46,2.46,0,0,0-.91.64,2.63,2.63,0,0,0-.53,1,3.48,3.48,0,0,0-.12,1.23,4.07,4.07,0,0,0,.33,1.38,4.36,4.36,0,0,0,.72,1.21,3.3,3.3,0,0,0,.94.79,2.57,2.57,0,0,0,1.06.33A2.32,2.32,0,0,0,78.37,28.65Z"/><path class="cls-3" d="M88.71,29.51a4.06,4.06,0,0,1-2.4.08,1.81,1.81,0,0,1-1.26-1.27,1.88,1.88,0,0,1,0-1.05,3,3,0,0,1,.57-1.07l0-.07a1.39,1.39,0,0,1-1-1,1.4,1.4,0,0,1,0-.93,2.9,2.9,0,0,1,.38-.67v-.06a3.06,3.06,0,0,1-.89-.66,2.66,2.66,0,0,1-.63-1.13,2.9,2.9,0,0,1-.1-1.12,2.56,2.56,0,0,1,.32-1,2.87,2.87,0,0,1,.69-.79,2.76,2.76,0,0,1,1-.48,2.67,2.67,0,0,1,.58-.11,2.23,2.23,0,0,1,.46,0L89,17.47l.17.58-1.75.5a2.54,2.54,0,0,1,.82.63,2.5,2.5,0,0,1,.54,1,2.66,2.66,0,0,1,.1,1.11,2.73,2.73,0,0,1-.31,1,2.62,2.62,0,0,1-.67.78,2.77,2.77,0,0,1-1.64.59,2.35,2.35,0,0,1-.66-.06,2.23,2.23,0,0,0-.3.57,1.12,1.12,0,0,0,0,.68,1,1,0,0,0,.49.61,1.76,1.76,0,0,0,1.22,0l1.6-.46a3.55,3.55,0,0,1,2-.11,1.53,1.53,0,0,1,1,1.13,2,2,0,0,1,0,1,2.68,2.68,0,0,1-.48,1,4.05,4.05,0,0,1-.95.88A5.06,5.06,0,0,1,88.71,29.51Zm-2-6.49a1.76,1.76,0,0,0,.69-.36,1.83,1.83,0,0,0,.5-.6,2.27,2.27,0,0,0,.23-.79,2.53,2.53,0,0,0-.49-1.71,2.17,2.17,0,0,0-.6-.54,2,2,0,0,0-.73-.24,2.11,2.11,0,0,0-.79.07,2.07,2.07,0,0,0-.71.36,2,2,0,0,0-.5.59,1.94,1.94,0,0,0-.24.76,2.41,2.41,0,0,0,.09.91,2.61,2.61,0,0,0,.4.82,2.1,2.1,0,0,0,.62.54,1.85,1.85,0,0,0,.75.25A1.73,1.73,0,0,0,86.75,23Zm1.88,5.91a4.18,4.18,0,0,0,1.09-.48,3.33,3.33,0,0,0,.75-.68,1.94,1.94,0,0,0,.38-.76,1.37,1.37,0,0,0,0-.75,1,1,0,0,0-.69-.75,2.67,2.67,0,0,0-1.36.11l-1.61.46-.38.08a4.93,4.93,0,0,1-.58.06,2.51,2.51,0,0,0-.54,1,1.75,1.75,0,0,0,0,.88,1.37,1.37,0,0,0,1,.95A3.38,3.38,0,0,0,88.63,28.93Z"/><path class="cls-3" d="M94.2,24.33,92.74,16.7l.61-.12L93.68,18h0a3.65,3.65,0,0,1,.71-1.34A1.86,1.86,0,0,1,95.58,16a2.08,2.08,0,0,1,.41-.05,1.43,1.43,0,0,1,.39.06l0,.67a1.7,1.7,0,0,0-.35,0,2,2,0,0,0-.38,0,1.89,1.89,0,0,0-1,.65A3.69,3.69,0,0,0,93.9,19l1,5.2Z"/><path class="cls-3" d="M102.31,23.26a2.85,2.85,0,0,1-.88,0,2.09,2.09,0,0,1-.75-.31,2,2,0,0,1-.55-.62,2.43,2.43,0,0,1-.27-.93,2.14,2.14,0,0,1,1-2.08,10.92,10.92,0,0,1,3.7-1.34,6.6,6.6,0,0,0-.15-.87,2.14,2.14,0,0,0-.36-.76,1.72,1.72,0,0,0-.62-.51,1.77,1.77,0,0,0-1-.12,3.21,3.21,0,0,0-1.39.45,7.17,7.17,0,0,0-1,.7l-.37-.5.47-.37a4.35,4.35,0,0,1,.64-.39,7,7,0,0,1,.78-.33,3.72,3.72,0,0,1,.89-.2,2.71,2.71,0,0,1,1.17.12,2.14,2.14,0,0,1,.82.56,2.64,2.64,0,0,1,.51.9,5.06,5.06,0,0,1,.25,1.16l.49,4.94-.61.06-.16-1h0a8.49,8.49,0,0,1-1.2.95A3,3,0,0,1,102.31,23.26Zm.07-.62a2.9,2.9,0,0,0,1.26-.45,8.51,8.51,0,0,0,1.24-1.07l-.27-2.63a15.86,15.86,0,0,0-2,.56,4.83,4.83,0,0,0-1.27.63,1.82,1.82,0,0,0-.65.73,1.79,1.79,0,0,0,.06,1.54,1.31,1.31,0,0,0,.4.44,1.55,1.55,0,0,0,.55.22A2.33,2.33,0,0,0,102.38,22.64Z"/><path class="cls-3" d="M109.81,26l.08-11.28h.62l.06,1h.05a7.52,7.52,0,0,1,1.24-.8,2.94,2.94,0,0,1,1.4-.35,2.72,2.72,0,0,1,2.33,1.1,4.83,4.83,0,0,1,.75,2.89,5.13,5.13,0,0,1-.29,1.77,4.1,4.1,0,0,1-.76,1.31,3.16,3.16,0,0,1-2.41,1.09,2.77,2.77,0,0,1-1.13-.26,6.38,6.38,0,0,1-1.2-.71l0,4.27Zm3-3.92a2.39,2.39,0,0,0,1.09-.25,2.49,2.49,0,0,0,.86-.73,3.58,3.58,0,0,0,.57-1.12,5,5,0,0,0,.21-1.44,6.19,6.19,0,0,0-.13-1.33,3.32,3.32,0,0,0-.42-1.07,2.1,2.1,0,0,0-.75-.7,2.48,2.48,0,0,0-1.13-.26,2.57,2.57,0,0,0-1.21.33,7.3,7.3,0,0,0-1.35.93l0,4.62a4.83,4.83,0,0,0,1.25.78A2.8,2.8,0,0,0,112.85,22.11Z"/><path class="cls-3" d="M119.93,22.84l1.38-11.55.7.08-.6,5.05a7.12,7.12,0,0,1,1.36-.86,2.62,2.62,0,0,1,1.48-.22,2.12,2.12,0,0,1,1.68.93,3.58,3.58,0,0,1,.29,2.3l-.59,4.95-.7-.08.58-4.85a3.31,3.31,0,0,0-.2-1.88A1.55,1.55,0,0,0,124,16a2.27,2.27,0,0,0-1.29.22,7,7,0,0,0-1.4.93l-.7,5.82Z"/><path class="cls-3" d="M128.62,27.66a1.79,1.79,0,0,1-.74-.33l.3-.58.26.15a1.21,1.21,0,0,0,.32.11,1.51,1.51,0,0,0,1.32-.3,4.44,4.44,0,0,0,1.08-1.27l.35-.61-1.38-8.43.76.17.76,5.18c0,.35.1.72.16,1.13s.12.81.19,1.18h.06l.6-1,.57-1,2.7-4.41.71.16-4.91,7.86a8,8,0,0,1-.6.84,3.59,3.59,0,0,1-.72.69,2.65,2.65,0,0,1-.83.4A1.94,1.94,0,0,1,128.62,27.66Z"/><path class="cls-3" d="M144.52,28.63l3.68-9.32L145,18.06l.24-.6,7,2.76-.24.61-3.16-1.25-3.68,9.32Z"/><path class="cls-3" d="M153.84,33.11a3.6,3.6,0,0,1-1.11-.89,3.26,3.26,0,0,1-.64-1.24,3.86,3.86,0,0,1-.09-1.49,5,5,0,0,1,.54-1.64,4.93,4.93,0,0,1,1.05-1.39,3.83,3.83,0,0,1,1.27-.79,3.45,3.45,0,0,1,1.34-.21,2.93,2.93,0,0,1,1.24.33,2.71,2.71,0,0,1,1.5,1.84,4,4,0,0,1-.53,2.72c0,.09-.09.17-.13.26a1,1,0,0,1-.17.24l-5-2.59a4.41,4.41,0,0,0-.43,1.3,3.31,3.31,0,0,0,0,1.22,2.69,2.69,0,0,0,.49,1,2.91,2.91,0,0,0,.94.78,3.45,3.45,0,0,0,2.18.35v.62a9,9,0,0,1-1.15,0A3.34,3.34,0,0,1,153.84,33.11Zm-.42-5.37,4.39,2.3a3.44,3.44,0,0,0,.49-2.27,2,2,0,0,0-1.13-1.43,2.25,2.25,0,0,0-.94-.26,2.5,2.5,0,0,0-1,.14,3.26,3.26,0,0,0-1,.55A4.23,4.23,0,0,0,153.42,27.74Z"/><path class="cls-3" d="M160.62,37.11a3.19,3.19,0,0,1-.66-.6,2.13,2.13,0,0,1-.38-.71,1.92,1.92,0,0,1,0-.83,2.45,2.45,0,0,1,.39-.89,2.12,2.12,0,0,1,2.09-1,10.82,10.82,0,0,1,3.71,1.3,5.68,5.68,0,0,0,.43-.77,2,2,0,0,0,.21-.81,1.63,1.63,0,0,0-.16-.78,1.82,1.82,0,0,0-.66-.71,3.36,3.36,0,0,0-1.36-.53,6.8,6.8,0,0,0-1.2-.08l0-.63.61,0a4,4,0,0,1,.73.1,7.43,7.43,0,0,1,.82.24,3.86,3.86,0,0,1,.81.41,2.62,2.62,0,0,1,.83.83,2.09,2.09,0,0,1,.28,1,2.87,2.87,0,0,1-.17,1,4.82,4.82,0,0,1-.55,1l-2.75,4.14-.51-.34.5-.87,0,0a8.71,8.71,0,0,1-1.53,0A3.11,3.11,0,0,1,160.62,37.11Zm.45-.45a2.73,2.73,0,0,0,1.25.45,7.71,7.71,0,0,0,1.64,0l1.46-2.2a16.62,16.62,0,0,0-1.88-.82,5.55,5.55,0,0,0-1.38-.32,1.92,1.92,0,0,0-1,.16,1.59,1.59,0,0,0-.64.57,1.71,1.71,0,0,0-.29.66,1.34,1.34,0,0,0,0,.6,1.47,1.47,0,0,0,.28.52A2.22,2.22,0,0,0,161.07,36.66Z"/><path class="cls-3" d="M169,43.31a3.47,3.47,0,0,1-.9-1.1,3,3,0,0,1-.36-1.32,3.63,3.63,0,0,1,.23-1.46,5.11,5.11,0,0,1,.88-1.5,4.91,4.91,0,0,1,1.33-1.16,3.91,3.91,0,0,1,1.42-.5,3.32,3.32,0,0,1,1.37.1,3.41,3.41,0,0,1,1.22.64,2.81,2.81,0,0,1,.86,1.08,4.58,4.58,0,0,1,.3,1.11l-.64.12a3.32,3.32,0,0,0-.27-1,2.1,2.1,0,0,0-.64-.83,2.54,2.54,0,0,0-1-.51,2.58,2.58,0,0,0-1.14,0,3.43,3.43,0,0,0-1.16.46,4.45,4.45,0,0,0-1.06.95,4.82,4.82,0,0,0-.73,1.21,3.53,3.53,0,0,0-.25,1.2,2.63,2.63,0,0,0,.24,1.1,2.65,2.65,0,0,0,.74.93,2.61,2.61,0,0,0,1.05.53,4.29,4.29,0,0,0,1.12.1l0,.62a5,5,0,0,1-1.33-.14A3.27,3.27,0,0,1,169,43.31Z"/><path class="cls-3" d="M173.43,46.92l8.26-8.19.51.5-3.61,3.58a7.09,7.09,0,0,1,1.59.18,2.63,2.63,0,0,1,1.3.74,2.1,2.1,0,0,1,.73,1.78,3.55,3.55,0,0,1-1.19,2L177.48,51l-.51-.5,3.48-3.44a3.3,3.3,0,0,0,1-1.59,1.56,1.56,0,0,0-.54-1.39,2.32,2.32,0,0,0-1.15-.64,7.86,7.86,0,0,0-1.68-.14l-4.16,4.13Z"/><path class="cls-3" d="M181.89,56.52a3.59,3.59,0,0,1-.66-1.27,3.26,3.26,0,0,1-.09-1.39,3.74,3.74,0,0,1,.52-1.4,4.91,4.91,0,0,1,1.15-1.29,4.83,4.83,0,0,1,1.52-.85,3.88,3.88,0,0,1,1.48-.21,3.39,3.39,0,0,1,1.31.34,2.79,2.79,0,0,1,1,.8,2.7,2.7,0,0,1,.64,2.29,4,4,0,0,1-1.57,2.28L187,56a1.32,1.32,0,0,1-.25.16l-3.5-4.37a4.39,4.39,0,0,0-.92,1,3.29,3.29,0,0,0-.46,1.13,2.78,2.78,0,0,0,0,1.15,2.81,2.81,0,0,0,.55,1.09,3.46,3.46,0,0,0,.86.78,4.34,4.34,0,0,0,1,.42L184,58a9.61,9.61,0,0,1-1.05-.48A3.68,3.68,0,0,1,181.89,56.52Zm1.77-5.09,3.1,3.86a3.44,3.44,0,0,0,1.36-1.88,2,2,0,0,0-.47-1.76,2.13,2.13,0,0,0-.75-.62,2.64,2.64,0,0,0-1-.27,3.06,3.06,0,0,0-1.11.12A4.07,4.07,0,0,0,183.66,51.43Z"/><path class="cls-3" d="M185.75,61.42l6.47-4.32.34.52-1.16.85,0,0a3.92,3.92,0,0,1,1.51.13,2,2,0,0,1,1.08.79,2.12,2.12,0,0,1,.19.36,1.41,1.41,0,0,1,.1.38l-.63.22a1.37,1.37,0,0,0-.1-.34,2.91,2.91,0,0,0-.18-.32,1.82,1.82,0,0,0-1-.66,3.72,3.72,0,0,0-1.86,0L186.15,62Z"/><path class="cls-3" d="M190,68.64a4,4,0,0,1-.5-1.55,5,5,0,0,1,.05-1.46l.67.11a5.52,5.52,0,0,0-.09,1.28,3,3,0,0,0,.43,1.36,1.89,1.89,0,0,0,1.08,1,1.46,1.46,0,0,0,1.16-.12,1.14,1.14,0,0,0,.47-.45,1.67,1.67,0,0,0,.2-.62,4.09,4.09,0,0,0,0-.7q0-.36-.09-.72c0-.31-.09-.62-.13-.94a3.88,3.88,0,0,1,0-.9,2.13,2.13,0,0,1,.24-.8,1.56,1.56,0,0,1,.64-.6,1.93,1.93,0,0,1,.78-.25,1.89,1.89,0,0,1,.81.1,2.5,2.5,0,0,1,.77.47,3.51,3.51,0,0,1,1.06,2,3.5,3.5,0,0,1,0,1.17l-.63-.1a3.86,3.86,0,0,0,0-1,2.43,2.43,0,0,0-.32-1,2.13,2.13,0,0,0-.49-.62,1.71,1.71,0,0,0-.54-.33A1.3,1.3,0,0,0,195,64a1.69,1.69,0,0,0-.51.16,1,1,0,0,0-.42.42,1.41,1.41,0,0,0-.16.56,3,3,0,0,0,0,.67l.09.71c0,.33.09.65.13,1a4.16,4.16,0,0,1,0,.93,2.16,2.16,0,0,1-.28.82,1.69,1.69,0,0,1-.71.66,2.2,2.2,0,0,1-.81.26,2,2,0,0,1-.86-.11,2.42,2.42,0,0,1-.82-.49A3.25,3.25,0,0,1,190,68.64Z"/><path class="cls-3" d="M199.82,70.49l.21-.42a3.71,3.71,0,0,0,1.14.36,2.13,2.13,0,0,0,1.14-.22.42.42,0,0,1-.07-.11.76.76,0,0,1-.05-.45.52.52,0,0,1,.33-.38.59.59,0,0,1,.85.3.64.64,0,0,1,0,.6,1.36,1.36,0,0,1-.65.52,2.88,2.88,0,0,1-1.5.3A3.17,3.17,0,0,1,199.82,70.49Z"/><path class="cls-3" d="M196.15,81.57l11.31.46.21.71-9.09,6.72-.23-.74,3.13-2.26-1.24-4-3.87-.14Zm6.86.94-2.1-.06L202,86.07l1.71-1.23,1.56-1.13c.5-.36,1-.72,1.62-1.09l0-.06c-.68,0-1.33,0-1.95,0Z"/><path class="cls-3" d="M199.37,94.24a3.94,3.94,0,0,1,0-1.64,5.4,5.4,0,0,1,.49-1.37l.61.31a5.3,5.3,0,0,0-.48,1.19,3.12,3.12,0,0,0,0,1.43,1.84,1.84,0,0,0,.73,1.27,1.47,1.47,0,0,0,1.14.24,1.22,1.22,0,0,0,.59-.29,1.68,1.68,0,0,0,.37-.53,3.39,3.39,0,0,0,.21-.66c0-.24.1-.48.14-.71s.1-.62.16-.94a4.64,4.64,0,0,1,.26-.87,2.2,2.2,0,0,1,.48-.68,1.58,1.58,0,0,1,.79-.38,2.26,2.26,0,0,1,.82,0,1.8,1.8,0,0,1,.74.35,2.18,2.18,0,0,1,.59.68,3.14,3.14,0,0,1,.37,1,3.39,3.39,0,0,1,0,1.23A3.72,3.72,0,0,1,207,95l-.57-.29a4.82,4.82,0,0,0,.32-.9,2.53,2.53,0,0,0,0-1.06,2.38,2.38,0,0,0-.27-.74,1.9,1.9,0,0,0-.41-.47,1.28,1.28,0,0,0-.51-.22,1.18,1.18,0,0,0-.53,0,1,1,0,0,0-.53.26,1.32,1.32,0,0,0-.33.49,3.46,3.46,0,0,0-.19.64c-.05.23-.09.47-.13.71s-.11.64-.17,1a3.93,3.93,0,0,1-.27.88,2,2,0,0,1-.51.71,1.85,1.85,0,0,1-.88.41,2.21,2.21,0,0,1-.85,0,1.85,1.85,0,0,1-.79-.37,2.57,2.57,0,0,1-.63-.71A3.24,3.24,0,0,1,199.37,94.24Z"/><path class="cls-3" d="M200.57,102.05a4,4,0,0,1,.14-1.63,5,5,0,0,1,.61-1.32l.58.36a5.6,5.6,0,0,0-.59,1.14,3.23,3.23,0,0,0-.12,1.43,1.83,1.83,0,0,0,.61,1.32,1.47,1.47,0,0,0,1.12.35,1.27,1.27,0,0,0,.61-.24,1.53,1.53,0,0,0,.41-.5,3.74,3.74,0,0,0,.28-.64c.07-.23.13-.46.2-.69s.15-.61.24-.92a3.52,3.52,0,0,1,.34-.84,2,2,0,0,1,.53-.64,1.59,1.59,0,0,1,.82-.31,2,2,0,0,1,.81.07,1.85,1.85,0,0,1,.72.41,2.6,2.6,0,0,1,.53.74,3.1,3.1,0,0,1,.27,1,3.16,3.16,0,0,1-.09,1.22,3.37,3.37,0,0,1-.47,1.07l-.54-.33a4.87,4.87,0,0,0,.4-.87,2.58,2.58,0,0,0,.09-1.06,2.06,2.06,0,0,0-.21-.76,1.76,1.76,0,0,0-.37-.5,1.25,1.25,0,0,0-.49-.27,1.34,1.34,0,0,0-.52,0,1.08,1.08,0,0,0-.56.21,1.67,1.67,0,0,0-.36.46,3.21,3.21,0,0,0-.25.62c-.07.23-.13.46-.19.7s-.17.63-.26.94a3.86,3.86,0,0,1-.34.86,2.27,2.27,0,0,1-.57.66,2.05,2.05,0,0,1-.92.33,2.22,2.22,0,0,1-.85-.08,2.18,2.18,0,0,1-.75-.43,2.64,2.64,0,0,1-.56-.77A3.41,3.41,0,0,1,200.57,102.05Z"/><path class="cls-3" d="M201.09,110.85a3.36,3.36,0,0,1,.26-1.33,3.19,3.19,0,0,1,.79-1.11,3.79,3.79,0,0,1,1.26-.78,5,5,0,0,1,1.72-.3,5,5,0,0,1,1.74.27,3.67,3.67,0,0,1,1.3.75,3.21,3.21,0,0,1,.8,1.1,3.17,3.17,0,0,1,.29,1.32,3.4,3.4,0,0,1-.26,1.34,3.23,3.23,0,0,1-.78,1.12,3.89,3.89,0,0,1-1.28.78,5.24,5.24,0,0,1-1.74.3,4.91,4.91,0,0,1-1.73-.27,3.76,3.76,0,0,1-1.28-.75,3.29,3.29,0,0,1-.8-1.11A3.35,3.35,0,0,1,201.09,110.85Zm.63,0a2.44,2.44,0,0,0,1,2,3.52,3.52,0,0,0,1.09.57,4.37,4.37,0,0,0,1.39.19,4.44,4.44,0,0,0,1.41-.22,3.3,3.3,0,0,0,1.08-.59,2.45,2.45,0,0,0,1-2,2.44,2.44,0,0,0-1-1.94,3.69,3.69,0,0,0-1.1-.57,4.46,4.46,0,0,0-1.41-.19,4.36,4.36,0,0,0-1.39.22,3.3,3.3,0,0,0-1.08.59,2.57,2.57,0,0,0-.7.87A2.49,2.49,0,0,0,201.72,110.85Z"/><path class="cls-3" d="M200.63,120.84a3.65,3.65,0,0,1,.41-1.37,3.25,3.25,0,0,1,.89-1,3.61,3.61,0,0,1,1.34-.63,5.16,5.16,0,0,1,1.74-.1,5,5,0,0,1,1.71.45,3.71,3.71,0,0,1,1.2.9,3.18,3.18,0,0,1,.69,1.19,3.51,3.51,0,0,1,.15,1.37,2.71,2.71,0,0,1-.42,1.31,4.61,4.61,0,0,1-.75.87l-.46-.46a3.78,3.78,0,0,0,.67-.77,2.28,2.28,0,0,0,.33-1,2.52,2.52,0,0,0-.15-1.13,2.68,2.68,0,0,0-.63-1,3.34,3.34,0,0,0-1-.7,4.37,4.37,0,0,0-1.38-.35,4.59,4.59,0,0,0-1.4.07,3.54,3.54,0,0,0-1.14.46,2.63,2.63,0,0,0-1.14,2,2.5,2.5,0,0,0,.15,1.16,3.92,3.92,0,0,0,.54,1l-.53.32a4.58,4.58,0,0,1-.62-1.18A3.13,3.13,0,0,1,200.63,120.84Z"/><path class="cls-3" d="M200.05,126.59l7.66,1.31-.12.7-7.66-1.31Zm9.45,2a.66.66,0,0,1,.25-.43.62.62,0,0,1,.48-.1.6.6,0,0,1,.44.26.67.67,0,0,1,.09.49.61.61,0,0,1-.25.42.6.6,0,0,1-.5.1.55.55,0,0,1-.41-.26A.62.62,0,0,1,209.5,128.59Z"/><path class="cls-3" d="M198.49,133.19a2.89,2.89,0,0,1,.34-.82,2,2,0,0,1,.56-.59,1.72,1.72,0,0,1,.76-.31,2.36,2.36,0,0,1,1,.07,2.1,2.1,0,0,1,1.6,1.65,10.42,10.42,0,0,1,0,3.94,6.08,6.08,0,0,0,.87.15,2.12,2.12,0,0,0,.84-.07,1.63,1.63,0,0,0,.69-.41,1.67,1.67,0,0,0,.44-.85,3.3,3.3,0,0,0,.06-1.46,6.85,6.85,0,0,0-.32-1.17l.6-.18c.06.16.12.35.19.58a4.73,4.73,0,0,1,.14.73,5.77,5.77,0,0,1,0,.85,3.54,3.54,0,0,1-.12.9,2.46,2.46,0,0,1-.51,1.05,2,2,0,0,1-.81.58,2.61,2.61,0,0,1-1,.17,5,5,0,0,1-1.17-.16l-4.82-1.23.16-.6,1,.19v0a8.25,8.25,0,0,1-.49-1.45A3.09,3.09,0,0,1,198.49,133.19Zm.56.27a2.76,2.76,0,0,0,0,1.34,7.54,7.54,0,0,0,.57,1.53l2.56.66a17.12,17.12,0,0,0,.16-2.05,5.07,5.07,0,0,0-.16-1.41,1.9,1.9,0,0,0-.46-.86,1.56,1.56,0,0,0-.75-.42,1.66,1.66,0,0,0-.72-.05,1.23,1.23,0,0,0-.55.22,1.58,1.58,0,0,0-.4.45A2.23,2.23,0,0,0,199.05,133.46Z"/><path class="cls-3" d="M195.65,142.48a2.27,2.27,0,0,1,.47-.82,1.47,1.47,0,0,1,.65-.41,2,2,0,0,1,.81-.05,5.24,5.24,0,0,1,.93.23l4.72,1.67.4-1.15.52.19-.35,1.18,2.09.84-.2.58-2.12-.75-.75,2.12-.58-.2.74-2.12-4.77-1.69a4,4,0,0,0-.66-.17,1.26,1.26,0,0,0-.55,0,.94.94,0,0,0-.45.26,1.39,1.39,0,0,0-.34.58,1.71,1.71,0,0,0-.09.49,2.09,2.09,0,0,0,0,.5h-.62c0-.24,0-.48,0-.71A3.45,3.45,0,0,1,195.65,142.48Z"/><path class="cls-3" d="M194.23,146.59l7.14,3.06-.28.66L194,147.25Zm8.72,4.14a.67.67,0,0,1,.35-.35.56.56,0,0,1,.49,0,.58.58,0,0,1,.36.36.69.69,0,0,1-.36.84.61.61,0,0,1-.51,0,.61.61,0,0,1-.34-.35A.67.67,0,0,1,203,150.73Z"/><path class="cls-3" d="M190.66,153.64a3.23,3.23,0,0,1,.86-1,3.4,3.4,0,0,1,1.22-.6,3.82,3.82,0,0,1,1.48-.07,4.53,4.53,0,0,1,1.66.56,4.85,4.85,0,0,1,1.4,1.07,3.9,3.9,0,0,1,.78,1.27,3.5,3.5,0,0,1,.18,1.35,3.43,3.43,0,0,1-.38,1.3,3.42,3.42,0,0,1-2.1,1.67,3.87,3.87,0,0,1-1.49.06,4.74,4.74,0,0,1-1.67-.57,4.68,4.68,0,0,1-1.39-1.06,3.77,3.77,0,0,1-.77-1.27,3.3,3.3,0,0,1,.22-2.66Zm.55.29a2.5,2.5,0,0,0-.29,1.09,2.66,2.66,0,0,0,.21,1.1,3.54,3.54,0,0,0,.69,1,4.7,4.7,0,0,0,2.47,1.31,3.4,3.4,0,0,0,1.23,0,2.49,2.49,0,0,0,1-.44,2.39,2.39,0,0,0,.74-.84,2.46,2.46,0,0,0,.29-1.08,2.67,2.67,0,0,0-.22-1.1,3.51,3.51,0,0,0-.7-1,4.64,4.64,0,0,0-1.14-.85,4.52,4.52,0,0,0-1.33-.47,3.62,3.62,0,0,0-1.23,0,2.69,2.69,0,0,0-1,.43A2.58,2.58,0,0,0,191.21,153.93Z"/><path class="cls-3" d="M187.26,159.9l6.41,4.4-.35.51-1-.63,0,0a7.28,7.28,0,0,1,.12,1.58,2.58,2.58,0,0,1-.49,1.41,2.12,2.12,0,0,1-1.61,1.06,3.71,3.71,0,0,1-2.17-.81L184,164.64l.4-.59,4,2.77a3.3,3.3,0,0,0,1.75.7,1.56,1.56,0,0,0,1.26-.8,2.33,2.33,0,0,0,.42-1.24,8.15,8.15,0,0,0-.18-1.68l-4.83-3.31Z"/><path class="cls-4" d="M70.29,58c3.48,1,6.81-.21,10.07-1.81a30,30,0,0,1,11.15-2.59,3.16,3.16,0,0,1,3.34,3.82h0a1.32,1.32,0,0,0,0,.81,1.35,1.35,0,0,0,1,.64L107,62.12a5,5,0,0,0,2.83.26c1.2-.37,1.94-1.55,3-2.24a6.92,6.92,0,0,1,4.38-.76,23.83,23.83,0,0,1,16,8.24c4.39,5.17,6.33,11.93,9.53,17.91a82.23,82.23,0,0,0,5.91,9.13c2,2.78,4.1,5.62,7.08,7.29s7.07,1.85,9.56-.5a31.23,31.23,0,0,1-8.78,18.83c-3.57,3.61-8.16,6.53-10.14,11.2-1.66,3.91-1.18,8.37-.4,12.54.62,3.32,1.34,7-.51,9.86-2.28,3.49-7.69,4.27-9.26,8.14a17.67,17.67,0,0,0-.72,3.24c-.64,3.09-2.44,5.8-4.21,8.42-3.05,4.55-6.2,9.2-11.35,11.7a12.09,12.09,0,0,1-7.66,1.08,6.7,6.7,0,0,1-3.16-1.4,9.35,9.35,0,0,1-1.85-2.46l-9.43-15.93a16.69,16.69,0,0,1-2.61-6.22c-.48-3.91,1.83-7.57,2.7-11.42a16.28,16.28,0,0,0-3.42-14,14.83,14.83,0,0,1-2.79-3.64c-1-2.34-.14-5,.11-7.54s-.68-5.72-3.19-6.16a16.56,16.56,0,0,1-2.55-.23c-1.31-.47-1.88-2-3-2.84-3.42-2.59-7.93,2.85-12.15,2.09-1.24-.22-2.43-1-3.66-.75-1,.19-1.78,1-2.72,1.44-2.75,1.22-5.65-1.32-7.48-3.72a73.62,73.62,0,0,1-6.87-11,6,6,0,0,1-.86-2.73c0-1.38.91-2.56,1.45-3.82,1.16-2.72.67-5.83,1-8.78.47-5,3.15-9.43,5.77-13.7C61.08,67.92,64.78,62,70.29,58Z"/><path class="cls-4" d="M160.46,146.14c.26,1.87.49,3.94-.56,5.52a9,9,0,0,0-1.22,1.81,5.91,5.91,0,0,0-.18,1.63,12,12,0,0,1-1.68,4.61l-3.68,7c-.17.33-.44.71-.81.66a1,1,0,0,1-.48-.3,3.68,3.68,0,0,1-1.35-2.12c-.14-1.44,1.36-2.46,1.89-3.81.7-1.81-.41-4.13.78-5.68.61-.8,1.66-1.11,2.46-1.73a7.53,7.53,0,0,0,1.78-2.32l3.13-5.44Z"/><path class="cls-4" d="M68.19,47.27c-.07.15-.13.31-.19.47L65.2,55.4h4.94a11.33,11.33,0,0,0,5.52-1c2.61-1.47,3.59-4.67,5.41-7,2.51-3.28,6.56-4.93,10.45-6.32a4.87,4.87,0,0,1,4.76.11,19.92,19.92,0,0,1,5.46,3.11,6.79,6.79,0,0,1,2.5,5.55,5.28,5.28,0,0,1,3.34-4.16,8.09,8.09,0,0,1-6-6,13.94,13.94,0,0,1,5.17,1c3.64,1.75,5,6.08,6.63,9.77.21.49.47,1,1.19,1a1.4,1.4,0,0,0,1.19-.91c.61-1.51.91-3.26,2.2-4.41a2.66,2.66,0,0,1,2.26-.69c2.42.5,2.31,4.34,4.45,5.48a5.08,5.08,0,0,0,2,.42l10.09.78a3.87,3.87,0,0,1,1.42.36c1.72.86,1.39,2.43,1,3.76a11.83,11.83,0,0,1-1.85,4.43,4.06,4.06,0,0,1-4.24,1.63,40.39,40.39,0,0,1,7.91,9.19c1.76,2.82,3.17,5.84,4.86,8.7,3.25,5.52,7.65,10.83,8,17.23a29.34,29.34,0,0,0,18.27-10,8.42,8.42,0,0,0,2.23-4.27c.19-1.62-.46-3.59-2-4a2.33,2.33,0,0,1-1.69-1.6,7,7,0,0,1-.22-2.42c-.69.13-1,.92-1.45,1.45a2.48,2.48,0,0,1-2.51.78,2.52,2.52,0,0,1-1.78-1.94,2.29,2.29,0,0,0-.14-.6c-.25-.48-.88-.55-1.4-.67a5.25,5.25,0,0,1-3.19-2.6,15.69,15.69,0,0,1-1.43-4c-.11-.44-.2-1,.16-1.29a1,1,0,0,1,.62-.17c1.24,0,2.19,1,3.11,1.87a12.17,12.17,0,0,0,5.79,2.83,4.81,4.81,0,0,1,2.05.66c.41.31.68.79,1.09,1.12.95.77,2.4.6,3.41,1.3a14.11,14.11,0,0,1,1.08,1c1.3,1.09,3.16,1.06,4.78,1.55l.64.23A77.84,77.84,0,0,0,115,34c-1.08,0-2.17-.07-3.26-.07a77.46,77.46,0,0,0-32,6.88,2.33,2.33,0,0,1,0,1,6,6,0,0,1-4.21,3.71,33.94,33.94,0,0,1-5.79.83h-.11Z"/><path class="cls-2" d="M69.39,105.36h2v.1a1.9,1.9,0,0,0,.91,1.8,5,5,0,0,0,2.42.51A3.27,3.27,0,0,0,77,107a2.54,2.54,0,0,0,.9-2,2.09,2.09,0,0,0-.77-1.67A9.08,9.08,0,0,0,74.75,102l-.81-.33a10.28,10.28,0,0,1-2.46-1.35,4.43,4.43,0,0,1-1.22-1.48,4.2,4.2,0,0,1,.85-4.78A5.38,5.38,0,0,1,75,92.86a5.08,5.08,0,0,1,3.42.9,2.76,2.76,0,0,1,1,2.1V96h-2v-.1a1.17,1.17,0,0,0-.31-.75,1.71,1.71,0,0,0-.91-.54,5.18,5.18,0,0,0-1.34-.16,2.94,2.94,0,0,0-2.2.74,2.35,2.35,0,0,0-.38,2.91,2.79,2.79,0,0,0,.94.93,15.93,15.93,0,0,0,2,1l1,.42a7.25,7.25,0,0,1,3,2.08,4.06,4.06,0,0,1,.76,2.35,4.56,4.56,0,0,1-.62,2.26,4.16,4.16,0,0,1-1.72,1.66,6.46,6.46,0,0,1-2.94.57,8.59,8.59,0,0,1-2.9-.42A3.31,3.31,0,0,1,70,107.54a3.72,3.72,0,0,1-.61-2.08Z"/><path class="cls-2" d="M84.93,108.85H83.06l6.36-15.53h2l5.88,15.53H95.16l-1.61-4.28H86.69ZM87.3,103H93l-2.72-7.21Z"/><path class="cls-2" d="M112.25,108.14a11.05,11.05,0,0,1-4.71,1.18,6.83,6.83,0,0,1-3.77-.93,6.52,6.52,0,0,1-2.31-2.67,10.1,10.1,0,0,1-.86-4.46,11.3,11.3,0,0,1,.82-4.77,6.39,6.39,0,0,1,2.3-2.67,6.28,6.28,0,0,1,3.51-1,6.86,6.86,0,0,1,2.53.44,4,4,0,0,1,1.81,1.33,3,3,0,0,1,.68,1.78v.1h-1.86v-.1a1.49,1.49,0,0,0-.42-1,2.79,2.79,0,0,0-1.09-.73,4.32,4.32,0,0,0-1.54-.26,3.89,3.89,0,0,0-3.45,1.77,10.45,10.45,0,0,0,0,9.78,3.92,3.92,0,0,0,3.44,1.81,9,9,0,0,0,3-.63v-4.43h-3.5v-1.55h5.36Z"/><path class="cls-2" d="M121.11,108.85v-14h-5.28V93.32h12.51v1.55h-5.21v14Z"/><path class="cls-2" d="M132.85,108.85H131l6.36-15.53h2l5.88,15.53h-2.18l-1.61-4.28H134.6Zm2.37-5.83h5.65l-2.73-7.21Z"/><polygon class="cls-5" points="118.51 178.8 116.19 180.17 116.94 177.58 114.42 176.63 116.92 175.6 116.09 173.03 118.45 174.35 119.94 172.1 120.38 174.76 123.07 174.53 121.27 176.53 123.13 178.49 120.43 178.33 120.06 181 118.51 178.8"/><polygon class="cls-5" points="127.37 137.34 125.05 138.72 125.8 136.13 123.28 135.18 125.78 134.15 124.95 131.58 127.31 132.89 128.8 130.65 129.25 133.31 131.93 133.07 130.13 135.08 131.99 137.04 129.29 136.88 128.92 139.55 127.37 137.34"/><polygon class="cls-5" points="108.22 150.8 105.91 152.17 106.66 149.58 104.14 148.63 106.63 147.6 105.81 145.03 108.16 146.34 109.66 144.1 110.1 146.76 112.79 146.53 110.98 148.53 112.84 150.49 110.15 150.33 109.78 153 108.22 150.8"/><polygon class="cls-5" points="138.46 152.82 136.14 154.2 136.89 151.61 134.37 150.65 136.87 149.63 136.04 147.06 138.4 148.37 139.89 146.12 140.33 148.78 143.02 148.55 141.22 150.56 143.08 152.51 140.38 152.35 140.01 155.03 138.46 152.82"/><polygon class="cls-5" points="128.74 161.29 127.03 161.77 127.69 160.12 126.71 158.64 128.48 158.76 129.58 157.37 130.01 159.09 131.68 159.71 130.18 160.65 130.1 162.42 128.74 161.29"/></g></g></svg>